{
    "asset" : {
        "generator" : "Khronos glTF Blender I/O v3.3.32",
        "version" : "2.0"
    },
    "scene" : 0,
    "scenes" : [
        {
            "name" : "Scene",
            "nodes" : [
                0
            ]
        }
    ],
    "nodes" : [
        {
            "mesh" : 0,
            "name" : "Sword_big"
        }
    ],
    "materials" : [
        {
            "doubleSided" : true,
            "name" : "Steel",
            "pbrMetallicRoughness" : {
                "baseColorFactor" : [
                    0.13794836401939392,
                    0.15780702233314514,
                    0.22696538269519806,
                    1
                ],
                "metallicFactor" : 0,
                "roughnessFactor" : 0.5
            }
        },
        {
            "doubleSided" : true,
            "name" : "LightWood",
            "pbrMetallicRoughness" : {
                "baseColorFactor" : [
                    0.15742357075214386,
                    0.07902974635362625,
                    0.08487100899219513,
                    1
                ],
                "metallicFactor" : 0,
                "roughnessFactor" : 0.5
            }
        },
        {
            "doubleSided" : true,
            "name" : "DarkWood",
            "pbrMetallicRoughness" : {
                "baseColorFactor" : [
                    0.06369900703430176,
                    0.03240605443716049,
                    0.051608629524707794,
                    1
                ],
                "metallicFactor" : 0,
                "roughnessFactor" : 0.5
            }
        },
        {
            "doubleSided" : true,
            "name" : "LightSteel",
            "pbrMetallicRoughness" : {
                "baseColorFactor" : [
                    0.35281631350517273,
                    0.34685632586479187,
                    0.35883525013923645,
                    1
                ],
                "metallicFactor" : 0,
                "roughnessFactor" : 0.5
            }
        },
        {
            "doubleSided" : true,
            "name" : "DarkSteel",
            "pbrMetallicRoughness" : {
                "baseColorFactor" : [
                    0.26635563373565674,
                    0.26635563373565674,
                    0.22322800755500793,
                    1
                ],
                "metallicFactor" : 0,
                "roughnessFactor" : 0.5
            }
        }
    ],
    "meshes" : [
        {
            "name" : "Cylinder.038",
            "primitives" : [
                {
                    "attributes" : {
                        "POSITION" : 0,
                        "NORMAL" : 1,
                        "TEXCOORD_0" : 2
                    },
                    "indices" : 3,
                    "material" : 0
                },
                {
                    "attributes" : {
                        "POSITION" : 4,
                        "NORMAL" : 5,
                        "TEXCOORD_0" : 6
                    },
                    "indices" : 7,
                    "material" : 1
                },
                {
                    "attributes" : {
                        "POSITION" : 8,
                        "NORMAL" : 9,
                        "TEXCOORD_0" : 10
                    },
                    "indices" : 11,
                    "material" : 2
                },
                {
                    "attributes" : {
                        "POSITION" : 12,
                        "NORMAL" : 13,
                        "TEXCOORD_0" : 14
                    },
                    "indices" : 15,
                    "material" : 3
                },
                {
                    "attributes" : {
                        "POSITION" : 16,
                        "NORMAL" : 17,
                        "TEXCOORD_0" : 18
                    },
                    "indices" : 19,
                    "material" : 4
                }
            ]
        }
    ],
    "accessors" : [
        {
            "bufferView" : 0,
            "componentType" : 5126,
            "count" : 412,
            "max" : [
                0.014362473972141743,
                2.5486385822296143,
                0.1550246626138687
            ],
            "min" : [
                -0.01436247956007719,
                0.620701789855957,
                -0.1550246626138687
            ],
            "type" : "VEC3"
        },
        {
            "bufferView" : 1,
            "componentType" : 5126,
            "count" : 412,
            "type" : "VEC3"
        },
        {
            "bufferView" : 2,
            "componentType" : 5126,
            "count" : 412,
            "type" : "VEC2"
        },
        {
            "bufferView" : 3,
            "componentType" : 5123,
            "count" : 420,
            "type" : "SCALAR"
        },
        {
            "bufferView" : 4,
            "componentType" : 5126,
            "count" : 800,
            "max" : [
                0.0462036095559597,
                0.48590287566185,
                0.046203698962926865
            ],
            "min" : [
                -0.0462036095559597,
                -0.059008583426475525,
                -0.046203698962926865
            ],
            "type" : "VEC3"
        },
        {
            "bufferView" : 5,
            "componentType" : 5126,
            "count" : 800,
            "type" : "VEC3"
        },
        {
            "bufferView" : 6,
            "componentType" : 5126,
            "count" : 800,
            "type" : "VEC2"
        },
        {
            "bufferView" : 7,
            "componentType" : 5123,
            "count" : 1008,
            "type" : "SCALAR"
        },
        {
            "bufferView" : 8,
            "componentType" : 5126,
            "count" : 264,
            "max" : [
                0.04909486323595047,
                0.5046834349632263,
                0.049094993621110916
            ],
            "min" : [
                -0.04909486323595047,
                -0.06718334555625916,
                -0.049094993621110916
            ],
            "type" : "VEC3"
        },
        {
            "bufferView" : 9,
            "componentType" : 5126,
            "count" : 264,
            "type" : "VEC3"
        },
        {
            "bufferView" : 10,
            "componentType" : 5126,
            "count" : 264,
            "type" : "VEC2"
        },
        {
            "bufferView" : 11,
            "componentType" : 5123,
            "count" : 384,
            "type" : "SCALAR"
        },
        {
            "bufferView" : 12,
            "componentType" : 5126,
            "count" : 196,
            "max" : [
                0.014362473972141743,
                2.584094524383545,
                0.18327023088932037
            ],
            "min" : [
                -0.01436247956007719,
                0.620701789855957,
                -0.18327023088932037
            ],
            "type" : "VEC3"
        },
        {
            "bufferView" : 13,
            "componentType" : 5126,
            "count" : 196,
            "type" : "VEC3"
        },
        {
            "bufferView" : 14,
            "componentType" : 5126,
            "count" : 196,
            "type" : "VEC2"
        },
        {
            "bufferView" : 15,
            "componentType" : 5123,
            "count" : 252,
            "type" : "SCALAR"
        },
        {
            "bufferView" : 16,
            "componentType" : 5126,
            "count" : 376,
            "max" : [
                0.05063334479928017,
                0.6501773595809937,
                0.2165669947862625
            ],
            "min" : [
                -0.05063334479928017,
                -0.15053090453147888,
                -0.2165669947862625
            ],
            "type" : "VEC3"
        },
        {
            "bufferView" : 17,
            "componentType" : 5126,
            "count" : 376,
            "type" : "VEC3"
        },
        {
            "bufferView" : 18,
            "componentType" : 5126,
            "count" : 376,
            "type" : "VEC2"
        },
        {
            "bufferView" : 19,
            "componentType" : 5123,
            "count" : 426,
            "type" : "SCALAR"
        }
    ],
    "bufferViews" : [
        {
            "buffer" : 0,
            "byteLength" : 4944,
            "byteOffset" : 0,
            "target" : 34962
        },
        {
            "buffer" : 0,
            "byteLength" : 4944,
            "byteOffset" : 4944,
            "target" : 34962
        },
        {
            "buffer" : 0,
            "byteLength" : 3296,
            "byteOffset" : 9888,
            "target" : 34962
        },
        {
            "buffer" : 0,
            "byteLength" : 840,
            "byteOffset" : 13184,
            "target" : 34963
        },
        {
            "buffer" : 0,
            "byteLength" : 9600,
            "byteOffset" : 14024,
            "target" : 34962
        },
        {
            "buffer" : 0,
            "byteLength" : 9600,
            "byteOffset" : 23624,
            "target" : 34962
        },
        {
            "buffer" : 0,
            "byteLength" : 6400,
            "byteOffset" : 33224,
            "target" : 34962
        },
        {
            "buffer" : 0,
            "byteLength" : 2016,
            "byteOffset" : 39624,
            "target" : 34963
        },
        {
            "buffer" : 0,
            "byteLength" : 3168,
            "byteOffset" : 41640,
            "target" : 34962
        },
        {
            "buffer" : 0,
            "byteLength" : 3168,
            "byteOffset" : 44808,
            "target" : 34962
        },
        {
            "buffer" : 0,
            "byteLength" : 2112,
            "byteOffset" : 47976,
            "target" : 34962
        },
        {
            "buffer" : 0,
            "byteLength" : 768,
            "byteOffset" : 50088,
            "target" : 34963
        },
        {
            "buffer" : 0,
            "byteLength" : 2352,
            "byteOffset" : 50856,
            "target" : 34962
        },
        {
            "buffer" : 0,
            "byteLength" : 2352,
            "byteOffset" : 53208,
            "target" : 34962
        },
        {
            "buffer" : 0,
            "byteLength" : 1568,
            "byteOffset" : 55560,
            "target" : 34962
        },
        {
            "buffer" : 0,
            "byteLength" : 504,
            "byteOffset" : 57128,
            "target" : 34963
        },
        {
            "buffer" : 0,
            "byteLength" : 4512,
            "byteOffset" : 57632,
            "target" : 34962
        },
        {
            "buffer" : 0,
            "byteLength" : 4512,
            "byteOffset" : 62144,
            "target" : 34962
        },
        {
            "buffer" : 0,
            "byteLength" : 3008,
            "byteOffset" : 66656,
            "target" : 34962
        },
        {
            "buffer" : 0,
            "byteLength" : 852,
            "byteOffset" : 69664,
            "target" : 34963
        }
    ],
    "buffers" : [
        {
            "byteLength" : 70516,
            "uri" : "Sword.bin"
        }
    ]
}
