{
    "asset" : {
        "generator" : "Khronos glTF Blender I/O v3.3.32",
        "version" : "2.0"
    },
    "scene" : 0,
    "scenes" : [
        {
            "name" : "Scene",
            "nodes" : [
                0,
                1,
                2,
                3,
                4,
                5
            ]
        }
    ],
    "nodes" : [
        {
            "mesh" : 0,
            "name" : "Body"
        },
        {
            "mesh" : 1,
            "name" : "Body.001"
        },
        {
            "mesh" : 2,
            "name" : "Body.002"
        },
        {
            "mesh" : 3,
            "name" : "Body.003"
        },
        {
            "mesh" : 4,
            "name" : "Body.004"
        },
        {
            "mesh" : 5,
            "name" : "Body.005"
        }
    ],
    "materials" : [
        {
            "doubleSided" : true,
            "name" : "Hair",
            "pbrMetallicRoughness" : {
                "baseColorFactor" : [
                    0.25979822874069214,
                    0.1796308010816574,
                    0.056136325001716614,
                    1
                ],
                "metallicFactor" : 0,
                "roughnessFactor" : 0.5
            }
        },
        {
            "doubleSided" : true,
            "name" : "Skin",
            "pbrMetallicRoughness" : {
                "baseColorFactor" : [
                    0.013410447165369987,
                    0.013410447165369987,
                    0.013410447165369987,
                    1
                ],
                "metallicFactor" : 0,
                "roughnessFactor" : 0.5
            }
        },
        {
            "doubleSided" : true,
            "name" : "Main",
            "pbrMetallicRoughness" : {
                "baseColorFactor" : [
                    0.02322944812476635,
                    0.03729452192783356,
                    0.06997612118721008,
                    1
                ],
                "metallicFactor" : 0,
                "roughnessFactor" : 0.5
            }
        },
        {
            "doubleSided" : true,
            "name" : "Black",
            "pbrMetallicRoughness" : {
                "baseColorFactor" : [
                    0.020377911627292633,
                    0.020377911627292633,
                    0.020377911627292633,
                    1
                ],
                "metallicFactor" : 0,
                "roughnessFactor" : 0.5
            }
        },
        {
            "doubleSided" : true,
            "name" : "Grey",
            "pbrMetallicRoughness" : {
                "baseColorFactor" : [
                    0.042026057839393616,
                    0.042026057839393616,
                    0.042026057839393616,
                    1
                ],
                "metallicFactor" : 0,
                "roughnessFactor" : 0.5
            }
        },
        {
            "doubleSided" : true,
            "name" : "Face",
            "pbrMetallicRoughness" : {
                "baseColorFactor" : [
                    1,
                    1,
                    0.9403874278068542,
                    1
                ],
                "metallicFactor" : 0,
                "roughnessFactor" : 0.5
            }
        }
    ],
    "meshes" : [
        {
            "name" : "Cube.004",
            "primitives" : [
                {
                    "attributes" : {
                        "POSITION" : 0,
                        "NORMAL" : 1,
                        "TEXCOORD_0" : 2
                    },
                    "indices" : 3,
                    "material" : 0
                }
            ]
        },
        {
            "name" : "Cube.001",
            "primitives" : [
                {
                    "attributes" : {
                        "POSITION" : 4,
                        "NORMAL" : 5,
                        "TEXCOORD_0" : 6
                    },
                    "indices" : 7,
                    "material" : 1
                }
            ]
        },
        {
            "name" : "Cube.002",
            "primitives" : [
                {
                    "attributes" : {
                        "POSITION" : 8,
                        "NORMAL" : 9,
                        "TEXCOORD_0" : 10
                    },
                    "indices" : 11,
                    "material" : 2
                }
            ]
        },
        {
            "name" : "Cube.003",
            "primitives" : [
                {
                    "attributes" : {
                        "POSITION" : 12,
                        "NORMAL" : 13,
                        "TEXCOORD_0" : 14
                    },
                    "indices" : 15,
                    "material" : 3
                }
            ]
        },
        {
            "name" : "Cube.005",
            "primitives" : [
                {
                    "attributes" : {
                        "POSITION" : 16,
                        "NORMAL" : 17,
                        "TEXCOORD_0" : 18
                    },
                    "indices" : 19,
                    "material" : 4
                }
            ]
        },
        {
            "name" : "Cube.006",
            "primitives" : [
                {
                    "attributes" : {
                        "POSITION" : 20,
                        "NORMAL" : 21,
                        "TEXCOORD_0" : 22
                    },
                    "indices" : 23,
                    "material" : 5
                }
            ]
        }
    ],
    "accessors" : [
        {
            "bufferView" : 0,
            "componentType" : 5126,
            "count" : 5292,
            "max" : [
                0.6236343383789062,
                3.1857497692108154,
                0.7616162896156311
            ],
            "min" : [
                -0.6236344575881958,
                1.58457350730896,
                -0.6612669825553894
            ],
            "type" : "VEC3"
        },
        {
            "bufferView" : 1,
            "componentType" : 5126,
            "count" : 5292,
            "type" : "VEC3"
        },
        {
            "bufferView" : 2,
            "componentType" : 5126,
            "count" : 5292,
            "type" : "VEC2"
        },
        {
            "bufferView" : 3,
            "componentType" : 5123,
            "count" : 13416,
            "type" : "SCALAR"
        },
        {
            "bufferView" : 4,
            "componentType" : 5126,
            "count" : 2120,
            "max" : [
                1.6198339462280273,
                3.1280741691589355,
                0.49162253737449646
            ],
            "min" : [
                -1.6198344230651855,
                -0.018590427935123444,
                -0.4916224181652069
            ],
            "type" : "VEC3"
        },
        {
            "bufferView" : 5,
            "componentType" : 5126,
            "count" : 2120,
            "type" : "VEC3"
        },
        {
            "bufferView" : 6,
            "componentType" : 5126,
            "count" : 2120,
            "type" : "VEC2"
        },
        {
            "bufferView" : 7,
            "componentType" : 5123,
            "count" : 3060,
            "type" : "SCALAR"
        },
        {
            "bufferView" : 8,
            "componentType" : 5126,
            "count" : 920,
            "max" : [
                1.1925026178359985,
                2.0455470085144043,
                0.33902376890182495
            ],
            "min" : [
                -1.1925030946731567,
                1.0885400772094727,
                -0.21746042370796204
            ],
            "type" : "VEC3"
        },
        {
            "bufferView" : 9,
            "componentType" : 5126,
            "count" : 920,
            "type" : "VEC3"
        },
        {
            "bufferView" : 10,
            "componentType" : 5126,
            "count" : 920,
            "type" : "VEC2"
        },
        {
            "bufferView" : 11,
            "componentType" : 5123,
            "count" : 1326,
            "type" : "SCALAR"
        },
        {
            "bufferView" : 12,
            "componentType" : 5126,
            "count" : 1046,
            "max" : [
                0.5653581023216248,
                2.084300994873047,
                0.30599144101142883
            ],
            "min" : [
                -0.5653582215309143,
                0.47021910548210144,
                -0.24264758825302124
            ],
            "type" : "VEC3"
        },
        {
            "bufferView" : 13,
            "componentType" : 5126,
            "count" : 1046,
            "type" : "VEC3"
        },
        {
            "bufferView" : 14,
            "componentType" : 5126,
            "count" : 1046,
            "type" : "VEC2"
        },
        {
            "bufferView" : 15,
            "componentType" : 5123,
            "count" : 1524,
            "type" : "SCALAR"
        },
        {
            "bufferView" : 16,
            "componentType" : 5126,
            "count" : 618,
            "max" : [
                0.4035468101501465,
                1.0885404348373413,
                0.31957167387008667
            ],
            "min" : [
                -0.4035468101501465,
                0.17141000926494598,
                -0.1981843262910843
            ],
            "type" : "VEC3"
        },
        {
            "bufferView" : 17,
            "componentType" : 5126,
            "count" : 618,
            "type" : "VEC3"
        },
        {
            "bufferView" : 18,
            "componentType" : 5126,
            "count" : 618,
            "type" : "VEC2"
        },
        {
            "bufferView" : 19,
            "componentType" : 5123,
            "count" : 912,
            "type" : "SCALAR"
        },
        {
            "bufferView" : 20,
            "componentType" : 5126,
            "count" : 488,
            "max" : [
                0.3687566816806793,
                2.758138656616211,
                -0.3853009045124054
            ],
            "min" : [
                -0.3687567412853241,
                2.470451593399048,
                -0.5015114545822144
            ],
            "type" : "VEC3"
        },
        {
            "bufferView" : 21,
            "componentType" : 5126,
            "count" : 488,
            "type" : "VEC3"
        },
        {
            "bufferView" : 22,
            "componentType" : 5126,
            "count" : 488,
            "type" : "VEC2"
        },
        {
            "bufferView" : 23,
            "componentType" : 5123,
            "count" : 960,
            "type" : "SCALAR"
        }
    ],
    "bufferViews" : [
        {
            "buffer" : 0,
            "byteLength" : 63504,
            "byteOffset" : 0,
            "target" : 34962
        },
        {
            "buffer" : 0,
            "byteLength" : 63504,
            "byteOffset" : 63504,
            "target" : 34962
        },
        {
            "buffer" : 0,
            "byteLength" : 42336,
            "byteOffset" : 127008,
            "target" : 34962
        },
        {
            "buffer" : 0,
            "byteLength" : 26832,
            "byteOffset" : 169344,
            "target" : 34963
        },
        {
            "buffer" : 0,
            "byteLength" : 25440,
            "byteOffset" : 196176,
            "target" : 34962
        },
        {
            "buffer" : 0,
            "byteLength" : 25440,
            "byteOffset" : 221616,
            "target" : 34962
        },
        {
            "buffer" : 0,
            "byteLength" : 16960,
            "byteOffset" : 247056,
            "target" : 34962
        },
        {
            "buffer" : 0,
            "byteLength" : 6120,
            "byteOffset" : 264016,
            "target" : 34963
        },
        {
            "buffer" : 0,
            "byteLength" : 11040,
            "byteOffset" : 270136,
            "target" : 34962
        },
        {
            "buffer" : 0,
            "byteLength" : 11040,
            "byteOffset" : 281176,
            "target" : 34962
        },
        {
            "buffer" : 0,
            "byteLength" : 7360,
            "byteOffset" : 292216,
            "target" : 34962
        },
        {
            "buffer" : 0,
            "byteLength" : 2652,
            "byteOffset" : 299576,
            "target" : 34963
        },
        {
            "buffer" : 0,
            "byteLength" : 12552,
            "byteOffset" : 302228,
            "target" : 34962
        },
        {
            "buffer" : 0,
            "byteLength" : 12552,
            "byteOffset" : 314780,
            "target" : 34962
        },
        {
            "buffer" : 0,
            "byteLength" : 8368,
            "byteOffset" : 327332,
            "target" : 34962
        },
        {
            "buffer" : 0,
            "byteLength" : 3048,
            "byteOffset" : 335700,
            "target" : 34963
        },
        {
            "buffer" : 0,
            "byteLength" : 7416,
            "byteOffset" : 338748,
            "target" : 34962
        },
        {
            "buffer" : 0,
            "byteLength" : 7416,
            "byteOffset" : 346164,
            "target" : 34962
        },
        {
            "buffer" : 0,
            "byteLength" : 4944,
            "byteOffset" : 353580,
            "target" : 34962
        },
        {
            "buffer" : 0,
            "byteLength" : 1824,
            "byteOffset" : 358524,
            "target" : 34963
        },
        {
            "buffer" : 0,
            "byteLength" : 5856,
            "byteOffset" : 360348,
            "target" : 34962
        },
        {
            "buffer" : 0,
            "byteLength" : 5856,
            "byteOffset" : 366204,
            "target" : 34962
        },
        {
            "buffer" : 0,
            "byteLength" : 3904,
            "byteOffset" : 372060,
            "target" : 34962
        },
        {
            "buffer" : 0,
            "byteLength" : 1920,
            "byteOffset" : 375964,
            "target" : 34963
        }
    ],
    "buffers" : [
        {
            "byteLength" : 377884,
            "uri" : "Player.bin"
        }
    ]
}
